<?xml version="1.0" encoding="utf-8"?>
<!-- Generator: Adobe Illustrator 18.1.1, SVG Export Plug-In . SVG Version: 6.00 Build 0)  -->
<svg version="1.1" id="Layer_1" xmlns="http://www.w3.org/2000/svg" xmlns:xlink="http://www.w3.org/1999/xlink" x="0px" y="0px"
	 viewBox="0 0 92.7 22.8" enable-background="new 0 0 92.7 22.8" xml:space="preserve">
<g>
	<path fill="#FFFFFF" d="M19.1,16.4c0.4-1-0.2-1.2-0.4-1c0,0-0.1,0-0.1,0.2l0,0.1c-1.3,3.9-3.9,5.8-7,5.9C6.7,21.6,4,16.9,4,11.3
		c0-5.6,3-10.5,7.5-10.2c3.3,0.2,5.2,2.5,6.3,6.7c0,0,0.7,0.6,0.8-0.4c0.1-1.1-0.5-6.5-0.5-6.5s-0.3-1-0.8-0.3c0,0-0.3,1-1,0.8
		l-0.3-0.1c-1.7-0.9-3-1.2-4.9-1.3C4.6-0.2,0,4.9,0,11.3c0,6.4,4.7,11.5,11.3,11.3C15.5,22.5,18.2,19.6,19.1,16.4"/>
	<path fill="#FFFFFF" d="M22.5,11.4c-0.2,0.4-0.7,0.8-1.3,0.8c-0.8,0-1.4-0.6-1.4-1.4c0-0.5,0.2-0.9,0.6-1.2c0,0,1.2-1.1,3.3-1.1
		c2.3-0.1,6.2,0.5,6.2,2.8c0,2.3,0,9.1,0,9.1s0.1,2,2.4,0.9c0,0,0.3-0.1,0.4-0.3c0.1-0.1,0.5,0,0.3,0.4c-0.2,0.4-1.7,2.2-4.9,0.6
		c-0.7-0.4-0.5-1.1-1.7-0.4c-1.4,0.9-3.3,0.8-3.3,0.8c-2.2,0-4-1.6-4-3.5c0-1.9,1.9-3.8,5-3.8c2.8,0,2.7-1.9,2.8-2.6
		c0.1-0.7-0.1-2.8-1.5-3.2c-1.7-0.5-2.3,0.1-2.8,1.4C22.7,10.7,22.6,11.1,22.5,11.4z M27.1,18.8v-3.9c0,0-0.2,0.2-1.5,0.7
		c-2,0.7-3,2.1-3,2.1c-0.9,1.2-0.8,2.8,0.3,3.6c1.1,0.8,2.9,0.5,3.7-0.7C27.1,19.6,27.1,18.8,27.1,18.8z"/>
	<path fill="#FFFFFF" d="M34.9,13.5l0,5.5l0,0.4c0,1.5-0.8,2.3-2,2.6c0,0-0.3,0.3,0.3,0.3h0.1c0,0,6,0,6.5,0c0.5,0-0.1-0.3-0.1-0.3
		c-1.1-0.3-2-1.4-2-2.6l0-0.4c0,0,0-2.2,0-5.3v-0.2c0-0.7,0.1-1.4,0.4-2.1c0.7-1.7,3.1-2.1,4.5-1.3c1.2,0.6,1.4,2.3,1.4,3.5l0,5.5
		l0,0.4c0,1.5-0.8,2.3-2,2.6c0,0-0.3,0.3,0.3,0.3h0.1c0,0,6,0,6.5,0c0.5,0-0.1-0.3-0.1-0.3c-1.1-0.3-2-1.4-2-2.6l0-0.4
		c0,0,0-3.2,0-6.3c0-3.1-2.2-4.1-4.2-4.3c-2.1-0.2-4,1.2-4.5,1.6c-0.5,0.4-0.5,0.2-0.5,0.2s0,0-0.2-0.6c-0.2-0.9-0.7-0.8-0.7-0.8
		L33,9.2c0,0-0.6,0.2,0,0.5c0.5,0.2,1.9,0.4,1.9,2.7V13.5z"/>
	<path fill="#FFFFFF" d="M72.4,22c-0.9,0.5-2,0.8-3.1,0.8c-3.7,0-6.8-3.2-6.8-7.1c0-3.9,3-7.1,6.8-7.1c1.2,0,2.3,0.3,3.2,0.9
		c0,0,1,0.8,1-0.3c0-1.1,0-5.4,0-5.4s-0.2-2.5-2.7-2.5c-0.2,0-0.2-0.4,0.2-0.4c0.2,0,4.7-0.2,4.7-0.2s0.5-0.1,0.5,0.6
		c0,0.7,0,16.7,0,16.7s-0.1,3.3,1.8,3.7c0.6,0.1,0.5,0.4,0.1,0.5c-0.4,0.1-3.8,0.6-3.8,0.6S73.8,23,73.6,22
		c-0.1-0.5-0.3-0.7-0.7-0.4C72.6,21.9,72.6,21.9,72.4,22L72.4,22z M69.8,21.9c2.9,0.1,3.8-2.6,3.8-6.8c0-3.5-1.2-5.9-4-5.6
		c-2.4,0.3-3.8,2.7-3.8,6.1C65.8,19.1,67.6,21.9,69.8,21.9z"/>
	<path fill="#FFFFFF" d="M52.7,11.4c-0.2,0.4-0.7,0.8-1.3,0.8c-0.8,0-1.4-0.6-1.4-1.4c0-0.5,0.3-0.9,0.6-1.2c0,0,1.2-1.1,3.3-1.1
		c2.3-0.1,6.2,0.5,6.2,2.8c0,2.3,0,9.1,0,9.1s0.1,2,2.4,0.9c0,0,0.3-0.1,0.4-0.3c0.1-0.1,0.6,0,0.3,0.4c-0.2,0.4-1.7,2.2-4.9,0.6
		c-0.7-0.4-0.5-1.1-1.7-0.4c-1.4,0.9-3.3,0.8-3.3,0.8c-2.2,0-4-1.6-4-3.5c0-1.9,1.9-3.8,5-3.8c2.8,0,2.7-1.9,2.8-2.6
		c0.1-0.7-0.1-2.8-1.5-3.2c-1.7-0.5-2.3,0.1-2.8,1.4C52.9,10.7,52.8,11.1,52.7,11.4z M57.3,18.8v-3.9c0,0-0.3,0.2-1.5,0.7
		c-2,0.7-3,2.1-3,2.1c-0.9,1.2-0.8,2.8,0.3,3.6c1.1,0.8,2.9,0.5,3.7-0.7C57.3,19.6,57.3,18.8,57.3,18.8z"/>
	<path fill="#FFFFFF" d="M82,11.4c-0.2,0.4-0.7,0.8-1.3,0.8c-0.8,0-1.4-0.6-1.4-1.4c0-0.5,0.2-0.9,0.6-1.2c0,0,1.1-1.1,3.3-1.1
		c2.4-0.1,6.2,0.5,6.2,2.8c0,2.3,0,9.1,0,9.1s0.1,2,2.4,0.9c0,0,0.3-0.1,0.4-0.3c0.1-0.1,0.6,0,0.3,0.4c-0.2,0.4-1.7,2.2-4.9,0.6
		c-0.7-0.4-0.5-1.1-1.7-0.4c-1.4,0.9-3.3,0.8-3.3,0.8c-2.2,0-4-1.6-4-3.5c0-1.9,1.9-3.8,5-3.8c2.8,0,2.7-1.9,2.8-2.6
		c0.1-0.7-0.1-2.8-1.5-3.2c-1.7-0.5-2.3,0.1-2.8,1.4C82.2,10.7,82.1,11.1,82,11.4z M86.6,18.8v-3.9c0,0-0.2,0.2-1.5,0.7
		c-2,0.7-3,2.1-3,2.1c-0.9,1.2-0.8,2.8,0.3,3.6c1.1,0.8,2.9,0.5,3.7-0.7C86.6,19.6,86.6,18.8,86.6,18.8z"/>
	<path fill="#FFFFFF" d="M84.6,7.3l0-1.3l-0.1-0.1l0,0l-1.3,0.2c0-0.2,0.2-0.3,0.1-0.5l-1.3-1.1c0.1-0.1,0.3-0.1,0.3-0.2l-0.2-0.9
		c0.2,0,0.3,0,0.5,0.1c0.3,0.2,0.4-0.1,0.5-0.3c0.2,0.2,0.4,0.5,0.6,0.7c0.1,0,0.1,0,0.2,0l-0.3-1.6c0.2,0.1,0.3,0.3,0.5,0.3l0.5-1
		l0.5,1c0.2,0,0.4-0.1,0.5-0.3l-0.3,1.6c0,0,0.1,0,0.2,0c0.2-0.2,0.4-0.5,0.6-0.7c0.1,0.2,0.2,0.5,0.5,0.3c0.2,0,0.3-0.1,0.5-0.1
		l-0.2,0.9c0.1,0.1,0.2,0.1,0.3,0.2l-1.3,1.1c-0.1,0.2,0.1,0.3,0.1,0.5L85,5.9l0,0L84.8,6l0,1.3H84.6z"/>
	<g>
		<rect x="77.9" y="0.9" fill="#FFFFFF" width="3.4" height="6.8"/>
		<path fill="#FFFFFF" d="M79.6,4.3"/>
	</g>
	<g>
		<rect x="88.2" y="0.9" fill="#FFFFFF" width="3.4" height="6.8"/>
		<path fill="#FFFFFF" d="M89.9,4.3"/>
	</g>
</g>
</svg>
